<svg width="250" height="62" viewBox="0 0 250 62" fill="none" xmlns="http://www.w3.org/2000/svg">
<g clip-path="url(#clip0_218_7497)">
<mask id="mask0_218_7497" style="mask-type:alpha" maskUnits="userSpaceOnUse" x="136" y="-66" width="153" height="153">
<rect x="136.211" y="-5.71155" width="85.1108" height="129.901" transform="rotate(-45 136.211 -5.71155)" fill="url(#paint0_radial_218_7497)"/>
</mask>
<g mask="url(#mask0_218_7497)">
<g opacity="0.4">
<path opacity="0.3" d="M250.247 -7.13594L202.864 -54.5198M240.251 2.86066L192.867 -44.5232M230.254 12.8573L182.87 -34.5266M220.058 22.8539L172.674 -24.53M209.961 32.7505L162.577 -14.6334M199.865 42.6471L152.481 -4.73676" stroke="#334155" stroke-width="4"/>
<path d="M145.271 -11.9468L145.929 -11.2883C146.753 -10.4638 147.769 -9.85558 148.885 -9.51767C150.001 -9.17976 151.183 -9.1226 152.326 -9.35126L161.587 -11.2033C162.73 -11.432 163.912 -11.3748 165.028 -11.0369C166.144 -10.699 167.159 -10.0908 167.984 -9.26629L168.642 -8.60781M194.727 37.5101L195.386 38.1687C196.21 38.9932 197.226 39.6013 198.342 39.9392C199.458 40.2771 200.64 40.3343 201.783 40.1056L211.044 38.2535C212.187 38.0249 213.369 38.0821 214.485 38.42C215.601 38.7579 216.616 39.3661 217.441 40.1906L218.099 40.8491M191.597 14.3468L192.256 15.0052C193.08 15.8298 194.096 16.438 195.212 16.7758C196.328 17.1137 197.51 17.1709 198.653 16.9422L207.913 15.0901C209.057 14.8614 210.239 14.9186 211.355 15.2564C212.471 15.5943 213.486 16.2025 214.311 17.0271L214.969 17.6856M180.955 -36.3624L181.613 -35.7038C182.438 -34.8793 183.453 -34.2711 184.569 -33.9332C185.685 -33.5953 186.867 -33.5382 188.01 -33.7668L197.271 -35.6189C198.414 -35.8476 199.596 -35.7905 200.712 -35.4526C201.828 -35.1147 202.844 -34.5065 203.668 -33.682L204.327 -33.0235M230.203 12.8861L230.861 13.5445C231.686 14.369 232.294 15.3843 232.632 16.5003C232.97 17.6163 233.027 18.7985 232.798 19.9419L230.946 29.2022C230.718 30.3456 230.775 31.5277 231.113 32.6437C231.451 33.7597 232.059 34.775 232.883 35.5995L233.542 36.2581" stroke="#334155" stroke-width="4"/>
<path d="M230.203 12.886L230.861 13.5445C231.686 14.369 232.294 15.3843 232.632 16.5003C232.97 17.6163 233.027 18.7985 232.799 19.9418L230.946 29.2022C230.718 30.3456 230.775 31.5277 231.113 32.6437C231.451 33.7597 232.059 34.775 232.883 35.5995L233.542 36.2581M222.69 -14.6597L223.349 -14.0012C224.173 -13.1767 224.782 -12.1614 225.12 -11.0454C225.457 -9.92935 225.515 -8.74717 225.286 -7.60378L223.434 1.65656C223.205 2.79995 223.262 3.98211 223.6 5.0981C223.938 6.21409 224.546 7.22939 225.371 8.05389L226.029 8.71236M250.445 13.0947L251.103 13.7531C251.928 14.5777 252.536 15.593 252.874 16.709C253.212 17.825 253.269 19.0072 253.04 20.1506L251.188 29.4109C250.959 30.5543 251.017 31.7365 251.355 32.8525C251.692 33.9685 252.301 34.9838 253.125 35.8082L253.783 36.4662M239.593 -17.79L243.591 -13.7926C244.415 -12.9681 245.024 -11.9528 245.361 -10.8368C245.699 -9.72077 245.756 -8.53862 245.528 -7.39525L243.676 1.8651C243.447 3.00849 243.504 4.19063 243.842 5.30662C244.18 6.42261 244.788 7.43791 245.613 8.26242L246.271 8.92089M237.715 40.4317L238.374 41.0902C239.198 41.9147 239.806 42.93 240.144 44.046C240.482 45.162 240.539 46.3441 240.311 47.4875L238.458 56.7474C238.23 57.8909 238.287 59.0731 238.625 60.1891C238.963 61.3052 239.571 62.3206 240.396 63.1452L241.054 63.804M180.955 -36.3623C182.949 -34.3684 185.995 -33.8739 188.517 -35.1351L206.781 -44.2672C209.303 -45.5283 212.349 -45.0339 214.343 -43.04M179.494 2.24337L182.562 5.31132C184.718 7.46699 188.011 8.0014 190.738 6.63807L208.659 -2.32268C211.181 -3.58375 214.228 -3.08942 216.221 -1.0955M133.376 -23.8415C135.327 -21.8906 138.371 -21.5564 140.698 -23.0376L169.459 -41.3396C171.786 -42.8207 174.83 -42.4867 176.781 -40.5358M169.477 12.26L163.634 6.41695M187.424 10.1733L172.816 -4.43426M250.027 52.7437L237.715 40.4316M159.461 2.24337L145.271 -11.9468M141.097 -16.1205L133.376 -23.8416M129.202 -28.0151L123.151 -34.0668M216.221 -1.0955L180.955 -36.3623M246.271 8.92089L222.691 -14.6598M280.077 22.6939L239.593 -17.7898M218.726 -18.6246L208.5 -28.8498M235.42 -21.9634L218.517 -38.8663M226.029 8.71236L220.395 3.07808M260.044 42.7271L257.957 40.6398M253.783 36.4662L230.203 12.8859M233.542 36.2581L219.143 21.8592M239.802 62.5514L222.273 45.0226M229.994 72.7769L194.727 37.5101M190.554 33.3366L173.651 16.4335" stroke="#334155" stroke-width="4"/>
<path d="M160.504 3.28676C159.928 3.86303 159.928 4.79737 160.504 5.37364C161.08 5.94992 162.015 5.94992 162.591 5.37365C163.167 4.79737 163.167 3.86303 162.591 3.28675C162.015 2.71047 161.08 2.71048 160.504 3.28676Z" fill="#1E293B" stroke="#334155" stroke-width="4"/>
<path d="M188.467 11.2166C187.891 11.7929 187.891 12.7272 188.467 13.3035C189.043 13.8798 189.978 13.8798 190.554 13.3035C191.13 12.7272 191.13 11.7929 190.554 11.2166C189.978 10.6403 189.043 10.6404 188.467 11.2166Z" fill="#1E293B" stroke="#334155" stroke-width="4"/>
<path d="M217.265 -0.0521685C216.688 0.52411 216.688 1.45844 217.265 2.03472C217.841 2.611 218.775 2.611 219.352 2.03472C219.928 1.45844 219.928 0.524107 219.352 -0.0521716C218.775 -0.62845 217.841 -0.628447 217.265 -0.0521685Z" fill="#1E293B" stroke="#334155" stroke-width="4"/>
<path d="M227.073 9.75575C226.496 10.332 226.496 11.2664 227.073 11.8426C227.649 12.4189 228.583 12.4189 229.159 11.8426C229.736 11.2664 229.736 10.332 229.159 9.75575C228.583 9.17947 227.649 9.17948 227.073 9.75575Z" fill="#1E293B" stroke="#334155" stroke-width="4"/>
<path d="M234.585 37.3015C234.009 37.8777 234.009 38.8121 234.585 39.3884C235.162 39.9646 236.096 39.9646 236.672 39.3884C237.248 38.8121 237.248 37.8777 236.672 37.3015C236.096 36.7252 235.162 36.7252 234.585 37.3015Z" stroke="#334155" stroke-width="4"/>
<path d="M219.143 41.8924C218.567 42.4687 218.567 43.403 219.143 43.9793C219.719 44.5556 220.653 44.5556 221.23 43.9793C221.806 43.403 221.806 42.4687 221.23 41.8924C220.653 41.3161 219.719 41.3161 219.143 41.8924Z" stroke="#334155" stroke-width="4"/>
<path d="M216.013 18.729C215.436 19.3052 215.436 20.2396 216.013 20.8158C216.589 21.3921 217.523 21.3921 218.1 20.8158C218.676 20.2396 218.676 19.3052 218.1 18.729C217.523 18.1527 216.589 18.1527 216.013 18.729Z" fill="#1E293B" stroke="#334155" stroke-width="4"/>
<path d="M191.597 34.38C191.021 34.9562 191.021 35.8906 191.597 36.4668C192.173 37.0431 193.108 37.0431 193.684 36.4668C194.26 35.8906 194.26 34.9562 193.684 34.38C193.108 33.8037 192.173 33.8037 191.597 34.38Z" fill="#1E293B" stroke="#334155" stroke-width="4"/>
<path d="M170.521 13.3033C169.945 13.8796 169.945 14.8139 170.521 15.3902C171.097 15.9665 172.031 15.9665 172.608 15.3902C173.184 14.8139 173.184 13.8796 172.608 13.3033C172.031 12.727 171.097 12.727 170.521 13.3033Z" fill="#0EA5E9" fill-opacity="0.42" stroke="#0EA5E9" stroke-width="4"/>
<path d="M247.314 9.96424C246.738 10.5405 246.738 11.4749 247.314 12.0511C247.891 12.6274 248.825 12.6274 249.401 12.0511C249.978 11.4749 249.978 10.5405 249.401 9.96425C248.825 9.38797 247.891 9.38796 247.314 9.96424Z" stroke="#334155" stroke-width="4"/>
</g>
</g>
</g>
<g clip-path="url(#clip1_218_7497)">
<mask id="mask1_218_7497" style="mask-type:alpha" maskUnits="userSpaceOnUse" x="-22" y="-7" width="153" height="153">
<rect x="-21.7888" y="53.2885" width="85.1108" height="129.901" transform="rotate(-45 -21.7888 53.2885)" fill="url(#paint1_radial_218_7497)"/>
</mask>
<g mask="url(#mask1_218_7497)">
<g opacity="0.4">
<path opacity="0.3" d="M92.2474 51.8641L44.8636 4.48019M82.2508 61.8607L34.867 14.4768M72.2542 71.8573L24.8704 24.4734M62.0577 81.8539L14.6738 34.47M51.9611 91.7505L4.57728 44.3666M41.8646 101.647L-5.51929 54.2632" stroke="#334155" stroke-width="4"/>
<path d="M-12.7295 47.0532L-12.071 47.7117C-11.2465 48.5362 -10.2312 49.1444 -9.11523 49.4823C-7.99923 49.8202 -6.81708 49.8774 -5.67369 49.6487L3.58665 47.7967C4.73004 47.568 5.91219 47.6252 7.02818 47.9631C8.14416 48.301 9.15947 48.9092 9.98398 49.7337L10.6425 50.3922M36.7274 96.5101L37.3859 97.1687C38.2104 97.9932 39.2257 98.6013 40.3417 98.9392C41.4577 99.2771 42.6398 99.3343 43.7832 99.1056L53.0435 97.2535C54.1869 97.0249 55.3691 97.0821 56.485 97.42C57.601 97.7579 58.6163 98.3661 59.4408 99.1906L60.0993 99.8491M33.5972 73.3468L34.2557 74.0052C35.0802 74.8298 36.0956 75.438 37.2116 75.7758C38.3276 76.1137 39.5097 76.1709 40.6531 75.9422L49.9135 74.0901C51.0568 73.8614 52.239 73.9186 53.355 74.2564C54.4709 74.5943 55.4862 75.2025 56.3107 76.0271L56.9693 76.6856M22.9547 22.6376L23.6132 23.2962C24.4377 24.1207 25.453 24.7289 26.569 25.0668C27.685 25.4047 28.8671 25.4618 30.0105 25.2332L39.2708 23.3811C40.4142 23.1524 41.5964 23.2095 42.7124 23.5474C43.8284 23.8853 44.8437 24.4935 45.6682 25.318L46.3267 25.9765M72.2029 71.8861L72.8614 72.5445C73.6859 73.369 74.2941 74.3843 74.632 75.5003C74.9699 76.6163 75.0271 77.7985 74.7984 78.9419L72.9463 88.2022C72.7176 89.3456 72.7748 90.5277 73.1126 91.6437C73.4505 92.7597 74.0587 93.775 74.8832 94.5995L75.5418 95.2581" stroke="#334155" stroke-width="4"/>
<path d="M72.203 71.886L72.8615 72.5445C73.686 73.369 74.2942 74.3843 74.6321 75.5003C74.97 76.6163 75.0272 77.7985 74.7985 78.9418L72.9464 88.2022C72.7177 89.3456 72.7749 90.5277 73.1127 91.6437C73.4506 92.7597 74.0588 93.775 74.8833 94.5995L75.5419 95.2581M64.6904 44.3403L65.3489 44.9988C66.1734 45.8233 66.7816 46.8386 67.1195 47.9546C67.4574 49.0707 67.5146 50.2528 67.2859 51.3962L65.4338 60.6566C65.2051 61.8 65.2623 62.9821 65.6002 64.0981C65.9381 65.2141 66.5463 66.2294 67.3708 67.0539L68.0293 67.7124M92.4448 72.0947L93.1033 72.7531C93.9278 73.5777 94.536 74.593 94.8739 75.709C95.2118 76.825 95.2689 78.0072 95.0402 79.1506L93.1881 88.4109C92.9595 89.5543 93.0166 90.7365 93.3545 91.8525C93.6924 92.9685 94.3007 93.9838 95.1252 94.8082L95.7832 95.4662M81.5935 41.21L85.5909 45.2074C86.4154 46.0319 87.0236 47.0472 87.3615 48.1632C87.6994 49.2792 87.7565 50.4614 87.5278 51.6048L85.6757 60.8651C85.4471 62.0085 85.5042 63.1906 85.8422 64.3066C86.1801 65.4226 86.7883 66.4379 87.6127 67.2624L88.2712 67.9209M79.7152 99.4317L80.3738 100.09C81.1983 100.915 81.8065 101.93 82.1444 103.046C82.4823 104.162 82.5394 105.344 82.3107 106.487L80.4583 115.747C80.2298 116.891 80.2871 118.073 80.6251 119.189C80.963 120.305 81.5712 121.321 82.3956 122.145L83.0544 122.804M22.9547 22.6377C24.9486 24.6316 27.9947 25.1261 30.5169 23.8649L48.7811 14.7328C51.3033 13.4717 54.3494 13.9661 56.3433 15.96M21.494 61.2434L24.5619 64.3113C26.7176 66.467 30.0109 67.0014 32.7377 65.6381L50.6592 56.6773C53.1813 55.4163 56.2275 55.9106 58.2215 57.9045M-24.624 35.1585C-22.6732 37.1094 -19.6291 37.4436 -17.3016 35.9624L11.4586 17.6604C13.7862 16.1793 16.8302 16.5133 18.7812 18.4642M11.4774 71.26L5.63435 65.4169M29.4237 69.1733L14.8161 54.5657M92.0274 111.744L79.7153 99.4316M1.46077 61.2434L-12.7294 47.0532M-16.9031 42.8795L-24.6241 35.1584M-28.7977 30.9849L-34.8494 24.9332M58.2215 57.9045L22.9547 22.6377M88.2712 67.9209L64.6905 44.3402M122.077 81.6939L81.5935 41.2102M60.7257 40.3754L50.5005 30.1502M77.4199 37.0366L60.517 20.1337M68.0293 67.7124L62.395 62.0781M102.044 101.727L99.9567 99.6398M95.7832 95.4662L72.2029 71.8859M75.5419 95.2581L61.143 80.8592M81.8018 121.551L64.273 104.023M71.9943 131.777L36.7275 96.5101M32.554 92.3366L15.6509 75.4335" stroke="#334155" stroke-width="4"/>
<path d="M2.50419 62.2868C1.92791 62.863 1.92791 63.7974 2.50418 64.3736C3.08046 64.9499 4.0148 64.9499 4.59108 64.3736C5.16735 63.7974 5.16735 62.863 4.59107 62.2868C4.0148 61.7105 3.08046 61.7105 2.50419 62.2868Z" fill="#1E293B" stroke="#334155" stroke-width="4"/>
<path d="M11.6858 51.4355C11.1096 52.0118 11.1096 52.9461 11.6858 53.5224C12.2621 54.0987 13.1964 54.0987 13.7727 53.5224C14.349 52.9461 14.349 52.0118 13.7727 51.4355C13.1964 50.8592 12.2621 50.8592 11.6858 51.4355Z" fill="#1E293B" stroke="#334155" stroke-width="4"/>
<path d="M59.2647 58.9478C58.6884 59.5241 58.6884 60.4584 59.2647 61.0347C59.841 61.611 60.7753 61.611 61.3516 61.0347C61.9279 60.4584 61.9279 59.5241 61.3516 58.9478C60.7753 58.3715 59.841 58.3716 59.2647 58.9478Z" fill="#1E293B" stroke="#334155" stroke-width="4"/>
<path d="M61.5603 41.21C60.9841 41.7863 60.9841 42.7206 61.5603 43.2969C62.1366 43.8731 63.071 43.8731 63.6472 43.2969C64.2235 42.7206 64.2235 41.7863 63.6472 41.21C63.071 40.6337 62.1366 40.6337 61.5603 41.21Z" fill="#0EA5E9" fill-opacity="0.42" stroke="#0EA5E9" stroke-width="4"/>
<path d="M47.3702 27.0198C46.7939 27.5961 46.7939 28.5305 47.3702 29.1067C47.9464 29.683 48.8808 29.683 49.457 29.1067C50.0333 28.5305 50.0333 27.5961 49.457 27.0198C48.8808 26.4436 47.9464 26.4436 47.3702 27.0198Z" fill="#1E293B" stroke="#334155" stroke-width="4"/>
<path d="M57.3865 17.0034C56.8102 17.5796 56.8102 18.514 57.3865 19.0903C57.9628 19.6665 58.8971 19.6665 59.4734 19.0903C60.0497 18.514 60.0497 17.5796 59.4734 17.0034C58.8971 16.4271 57.9628 16.4271 57.3865 17.0034Z" fill="#1E293B" stroke="#334155" stroke-width="4"/>
<path d="M78.4632 38.08C77.8869 38.6562 77.8869 39.5906 78.4632 40.1669C79.0395 40.7431 79.9738 40.7431 80.5501 40.1669C81.1263 39.5906 81.1263 38.6562 80.5501 38.08C79.9738 37.5037 79.0395 37.5037 78.4632 38.08Z" fill="#1E293B" stroke="#334155" stroke-width="4"/>
<path d="M19.8245 19.5076C19.2482 20.0839 19.2482 21.0182 19.8245 21.5945C20.4008 22.1707 21.3351 22.1708 21.9114 21.5945C22.4877 21.0182 22.4877 20.0839 21.9114 19.5076C21.3351 18.9313 20.4008 18.9313 19.8245 19.5076Z" stroke="#334155" stroke-width="4"/>
</g>
</g>
</g>
<g clip-path="url(#clip2_218_7497)">
<rect width="545" height="530" transform="translate(2 -204)" fill="url(#paint2_radial_218_7497)" fill-opacity="0.2"/>
</g>
<rect width="501" height="486" transform="translate(-236 -272)" fill="url(#paint3_radial_218_7497)" fill-opacity="0.2"/>
<defs>
<radialGradient id="paint0_radial_218_7497" cx="0" cy="0" r="1" gradientUnits="userSpaceOnUse" gradientTransform="translate(178.767 59.2389) rotate(90) scale(64.9505 42.5554)">
<stop/>
<stop offset="1" stop-opacity="0"/>
</radialGradient>
<radialGradient id="paint1_radial_218_7497" cx="0" cy="0" r="1" gradientUnits="userSpaceOnUse" gradientTransform="translate(20.7666 118.239) rotate(90) scale(64.9505 42.5554)">
<stop/>
<stop offset="1" stop-opacity="0"/>
</radialGradient>
<radialGradient id="paint2_radial_218_7497" cx="0" cy="0" r="1" gradientUnits="userSpaceOnUse" gradientTransform="translate(272.5 265) rotate(90) scale(265 272.5)">
<stop stop-color="#06BCD4"/>
<stop offset="1" stop-color="#1E293B" stop-opacity="0"/>
</radialGradient>
<radialGradient id="paint3_radial_218_7497" cx="0" cy="0" r="1" gradientUnits="userSpaceOnUse" gradientTransform="translate(250.5 243) rotate(90) scale(243 250.5)">
<stop stop-color="#6F5FEB"/>
<stop offset="1" stop-color="#1E293B" stop-opacity="0"/>
</radialGradient>
<clipPath id="clip0_218_7497">
<rect width="93.4477" height="145.756" fill="white" transform="translate(125 -16.9226) rotate(-45)"/>
</clipPath>
<clipPath id="clip1_218_7497">
<rect width="93.4477" height="145.756" fill="white" transform="translate(-33 42.0774) rotate(-45)"/>
</clipPath>
<clipPath id="clip2_218_7497">
<rect width="545" height="530" fill="white" transform="translate(2 -204)"/>
</clipPath>
</defs>
</svg>
