<svg width="96" height="24" viewBox="0 0 96 24" fill="none" xmlns="http://www.w3.org/2000/svg">
<path d="M13.302 5.418H10.872V13.698L4.05 5.418H0.72V5.724C1.602 6.03 1.728 6.912 1.728 8.316V18H4.158V9.54L11.106 18H13.302V5.418ZM25.867 14.4C25.867 12.762 25.111 11.646 23.419 11.214C24.427 10.818 24.949 9.81 24.949 8.658C24.949 7.164 23.887 5.418 20.935 5.418H15.679V5.724C16.561 6.03 16.687 6.912 16.687 8.316V18H21.475C24.337 18 25.867 16.146 25.867 14.4ZM22.465 8.91C22.465 9.738 21.997 10.638 20.521 10.638H19.225V7.182H20.521C21.997 7.182 22.465 8.082 22.465 8.91ZM23.185 14.292C23.185 15.228 22.609 16.236 20.845 16.236H19.225V12.348H20.845C22.609 12.348 23.185 13.356 23.185 14.292Z" fill="white"/>
<path d="M45.086 11.718C45.086 8.676 42.872 5.418 38.318 5.418H32.72V5.724C33.602 6.03 33.728 6.912 33.728 8.316V18H38.318C42.872 18 45.086 14.742 45.086 11.718ZM42.296 11.718C42.296 13.734 41.144 16.056 37.724 16.056H36.266V7.326H37.724C41.144 7.326 42.296 9.702 42.296 11.718ZM54.0483 13.482C54.0483 12.06 53.6523 10.908 52.8783 10.134C52.1763 9.414 51.2763 9.072 50.0703 9.072C47.6223 9.072 45.7863 11.034 45.7863 13.644C45.7863 16.308 47.5503 18.216 50.3583 18.216C51.6183 18.216 52.7703 17.874 53.7423 17.226L53.3643 15.588C52.5543 16.164 51.7083 16.398 50.8263 16.398C50.6823 16.398 50.5203 16.398 50.3583 16.38C49.1523 16.272 48.2883 15.462 48.1803 14.13H54.0123C54.0303 13.896 54.0483 13.698 54.0483 13.482ZM48.2523 12.564C48.4323 11.376 49.1703 10.782 50.0703 10.782C51.2943 10.782 51.7443 11.61 51.7983 12.564H48.2523ZM60.4777 5.67C60.1357 5.436 59.6497 5.31 59.0737 5.31C58.1557 5.31 57.3817 5.544 56.8237 6.048C56.0137 6.768 55.7437 7.596 55.7437 9.234V9.288H54.5557V11.088H55.7437V18H58.0297V11.088H59.9557V9.288H58.0297V8.82C58.0297 7.74 58.4977 7.2 59.3437 7.2C59.7397 7.2 60.1717 7.326 60.4777 7.578V5.67ZM68.3921 13.482C68.3921 12.06 67.9961 10.908 67.2221 10.134C66.5201 9.414 65.6201 9.072 64.4141 9.072C61.9661 9.072 60.1301 11.034 60.1301 13.644C60.1301 16.308 61.8941 18.216 64.7021 18.216C65.9621 18.216 67.1141 17.874 68.0861 17.226L67.7081 15.588C66.8981 16.164 66.0521 16.398 65.1701 16.398C65.0261 16.398 64.8641 16.398 64.7021 16.38C63.4961 16.272 62.6321 15.462 62.5241 14.13H68.3561C68.3741 13.896 68.3921 13.698 68.3921 13.482ZM62.5961 12.564C62.7761 11.376 63.5141 10.782 64.4141 10.782C65.6381 10.782 66.0881 11.61 66.1421 12.564H62.5961ZM77.8094 12.492C77.8094 9.99 76.3334 9.108 74.7494 9.108C73.6334 9.108 72.7514 9.468 72.0854 10.314L72.0494 9.306H69.0434V9.576C69.7454 9.756 69.9254 10.548 69.9254 11.502V18H72.2294V12.114C72.6434 11.322 73.3994 10.908 74.1014 10.908C75.2894 10.908 75.5054 11.862 75.5054 12.492V18H77.8094V12.492ZM85.5229 15.354C85.5229 14.022 84.7489 13.338 83.7949 12.906L82.3369 12.24C81.9049 12.042 81.7429 11.79 81.7429 11.52C81.7429 11.502 81.7429 11.466 81.7429 11.448C81.7789 11.052 82.3009 10.89 82.7509 10.89C83.7409 10.89 84.4789 11.232 85.1449 11.772V9.72C84.5329 9.306 83.6149 9.09 82.6069 9.09C81.2209 9.09 79.6549 9.792 79.4749 11.34C79.4749 11.448 79.4569 11.556 79.4569 11.664C79.4569 13.122 80.6629 13.806 81.1309 14.022L82.5709 14.67C82.9489 14.85 83.3449 15.156 83.3449 15.606C83.3449 16.128 82.8769 16.416 82.1209 16.416C81.0769 16.416 80.3209 16.128 79.4569 15.39V17.568C80.1229 17.982 81.0049 18.216 82.0489 18.216C83.4349 18.216 85.5229 17.64 85.5229 15.48V15.39V15.354ZM94.7241 13.482C94.7241 12.06 94.3281 10.908 93.5541 10.134C92.8521 9.414 91.9521 9.072 90.7461 9.072C88.2981 9.072 86.4621 11.034 86.4621 13.644C86.4621 16.308 88.2261 18.216 91.0341 18.216C92.2941 18.216 93.4461 17.874 94.4181 17.226L94.0401 15.588C93.2301 16.164 92.3841 16.398 91.5021 16.398C91.3581 16.398 91.1961 16.398 91.0341 16.38C89.8281 16.272 88.9641 15.462 88.8561 14.13H94.6881C94.7061 13.896 94.7241 13.698 94.7241 13.482ZM88.9281 12.564C89.1081 11.376 89.8461 10.782 90.7461 10.782C91.9701 10.782 92.4201 11.61 92.4741 12.564H88.9281Z" fill="white"/>
</svg>
