<svg width="16" height="16" viewBox="0 0 16 16" fill="none" xmlns="http://www.w3.org/2000/svg">
<g clip-path="url(#clip0_205_6521)">
<path d="M16 7.99998C16 12.4183 12.4183 16 8 16C3.58173 16 0 12.4183 0 7.99998C0 3.58172 3.58173 0 8 0C12.4183 0 16 3.58172 16 7.99998ZM1.45303 7.99998C1.45303 11.6158 4.38421 14.5469 8 14.5469C11.6158 14.5469 14.547 11.6158 14.547 7.99998C14.547 4.3842 11.6158 1.45303 8 1.45303C4.38421 1.45303 1.45303 4.3842 1.45303 7.99998Z" fill="#081E2E"/>
<path d="M14.9706 6.0911C15.3614 5.99018 15.5982 5.59537 15.4605 5.22187C15.1842 4.47238 14.7939 3.76687 14.3017 3.12985C13.6617 2.30153 12.862 1.60522 11.9483 1.08072C11.0345 0.556217 10.0247 0.213771 8.97632 0.0729379C8.17007 -0.0353709 7.35322 -0.0228082 6.55344 0.108976C6.15489 0.174647 5.92151 0.5714 6.02417 0.955634C6.12685 1.33987 6.52683 1.56529 6.92665 1.50753C7.53911 1.41905 8.16242 1.41562 8.77817 1.49834C9.63612 1.61359 10.4626 1.89384 11.2103 2.32307C11.9581 2.75231 12.6126 3.32215 13.1363 4.00003C13.5122 4.48654 13.8155 5.02186 14.0381 5.5897C14.1835 5.96039 14.5797 6.19204 14.9706 6.0911Z" fill="white"/>
<animateTransform
         attributeName="transform" 
         attributeType="XML" 
         type="rotate"
         dur="1s"
         from="0 8 8"
         to="360 8 8"
         repeatCount="indefinite" />
</g>
<defs>
<clipPath id="clip0_205_6521">
<rect width="16" height="16" fill="white"/>
</clipPath>
</defs>
</svg>
