<svg width="18" height="20" viewBox="0 0 18 20" fill="none" xmlns="http://www.w3.org/2000/svg">
<path d="M11.25 7V3.25C11.25 2.65326 11.0129 2.08097 10.591 1.65901C10.169 1.23705 9.59674 1 9 1H3C2.40326 1 1.83097 1.23705 1.40901 1.65901C0.987053 2.08097 0.75 2.65326 0.75 3.25V16.75C0.75 17.3467 0.987053 17.919 1.40901 18.341C1.83097 18.7629 2.40326 19 3 19H9C9.59674 19 10.169 18.7629 10.591 18.341C11.0129 17.919 11.25 17.3467 11.25 16.75V13M7.5 7L4.5 10M4.5 10L7.5 13M4.5 10H17.25" stroke="#212121" stroke-width="1.5" stroke-linecap="round" stroke-linejoin="round"/>
</svg>
